<svg xmlns="http://www.w3.org/2000/svg" width="128.097" height="38.122" viewBox="0 0 128.097 38.122">
  <g id="Crypto_Arena" data-name="Crypto Arena" transform="translate(-1460.343 -1336.399)">
    <path id="Trazado_4383" data-name="Trazado 4383" d="M1548.435,1348.2l8.811,7.125h8.035l-8.435-7.183c6.183.025,6.032-5.607,6.032-5.607a5.431,5.431,0,0,0-5.031-5.857h-16.169v18.638h6.758Zm0-7.067h7.109a1.3,1.3,0,1,1,0,2.6h-4.961l-2.172,4.141Z" transform="translate(-59.608 -0.206)" fill="#fff"/>
    <path id="Trazado_4384" data-name="Trazado 4384" d="M1867.6,1336.436h-4.335a9.339,9.339,0,0,0-9.312,9.312v.14a9.339,9.339,0,0,0,9.312,9.311h4.335a9.339,9.339,0,0,0,9.311-9.311v-.14A9.339,9.339,0,0,0,1867.6,1336.436Zm2.411,9.409a3.724,3.724,0,0,1-3.714,3.714h-1.729a3.724,3.724,0,0,1-3.714-3.714v-.056a3.725,3.725,0,0,1,3.714-3.714h1.729a3.725,3.725,0,0,1,3.714,3.714Z" transform="translate(-288.469 -0.027)" fill="#fff"/>
    <path id="Trazado_4385" data-name="Trazado 4385" d="M1480.719,1349.223l-8.606-.055c-.047,0-4.732-.072-5.208-3.669a3.119,3.119,0,0,1,.565-2.72,3.387,3.387,0,0,1,2.729-.873l7.136.078,3.4-5.5-12.033.026c-.211-.008-5.2-.2-7.308,3.284a10.825,10.825,0,0,0,2.709,12.866c2.027,1.888,5.068,2.407,8.408,2.51l4.841-.055Z" transform="translate(0 -0.065)" fill="#fff"/>
    <path id="Trazado_4386" data-name="Trazado 4386" d="M1623.741,1355.2h6.958l.065-7.235,7.193-11.563h-7.484l-3.189,6.239-3.319-6.239h-7.484l7.324,11.563Z" transform="translate(-114.432 0)" fill="#fff"/>
    <path id="Trazado_4387" data-name="Trazado 4387" d="M1790.135,1355.193h6.608v-14.21h4.355l2.522-4.513-17.646-.049-3.3,4.562h7.459Z" transform="translate(-236.233 -0.016)" fill="#fff"/>
    <path id="Trazado_4388" data-name="Trazado 4388" d="M1706.649,1348.122h8.035c6.758-.075,6.408-5.686,6.408-5.686a5.431,5.431,0,0,0-5.031-5.857h-16.169v18.673c.038.037,6.758.025,6.758.025Zm-.012-7.011,7.139.006a1.205,1.205,0,0,1,1.3,1.178,1.38,1.38,0,0,1-1.3,1.385h-5.289l-1.842,4.151Z" transform="translate(-175.561 -0.132)" fill="#fff"/>
    <path id="Trazado_4389" data-name="Trazado 4389" d="M1549.107,1450.347a.569.569,0,0,1-.479.253h-1.8a.538.538,0,0,1-.493-.3l-1.028-2.14h-5.069l-1.014,2.14a.538.538,0,0,1-.493.3h-1.817a.561.561,0,0,1-.464-.253.483.483,0,0,1-.014-.479s3.821-7.669,4.146-8.308a2.293,2.293,0,0,1,2.261-1.267,2.068,2.068,0,0,1,2.1,1.267l4.182,8.308A.482.482,0,0,1,1549.107,1450.347Zm-4.675-4.154-1.648-3.323c0-.014-.014-.042-.014-.056,0,.014-.013.014-.013.028l-1.648,3.351Z" transform="translate(-55.724 -76.142)" fill="#fff"/>
    <path id="Trazado_4390" data-name="Trazado 4390" d="M1828.672,1450.347a.569.569,0,0,1-.479.253h-1.8a.538.538,0,0,1-.493-.3l-1.028-2.14H1819.8l-1.014,2.14a.538.538,0,0,1-.492.3h-1.817a.561.561,0,0,1-.465-.253.484.484,0,0,1-.014-.479s3.821-7.669,4.146-8.308a2.293,2.293,0,0,1,2.261-1.267,2.069,2.069,0,0,1,2.1,1.267l4.182,8.308A.482.482,0,0,1,1828.672,1450.347Zm-4.675-4.154-1.648-3.323c0-.014-.014-.042-.014-.056,0,.014-.013.014-.013.028l-1.648,3.351Z" transform="translate(-260.613 -76.142)" fill="#fff"/>
    <path id="Trazado_4391" data-name="Trazado 4391" d="M1684.1,1450.588a2.194,2.194,0,0,1-1.506-.38,1.661,1.661,0,0,1-.55-1.394v-7.038a1.508,1.508,0,0,1,1.509-1.509h6.729a.547.547,0,0,1,.45.225l.8,1.1a.5.5,0,0,1,.042.507.552.552,0,0,1-.492.3h-5.787a.733.733,0,0,0-.38.07c-.042.028-.057.057-.057.2v.815a.791.791,0,0,0,.791.791h4.476a.54.54,0,0,1,.436.226l.8,1.1a.471.471,0,0,1,.042.507.525.525,0,0,1-.492.282h-5.264a.791.791,0,0,0-.791.791v1.138a.4.4,0,0,0,.028.112,1.689,1.689,0,0,0,.535.057h4.928a.552.552,0,0,1,.45.211l.789,1.1a.5.5,0,0,1,.042.521.529.529,0,0,1-.479.282Z" transform="translate(-162.478 -76.123)" fill="#fff"/>
    <path id="Trazado_4392" data-name="Trazado 4392" d="M1616.292,1447.136h.591a2.6,2.6,0,0,0,2.422-1.154,4.073,4.073,0,0,0,.549-2.351,3.46,3.46,0,0,0-.648-2.337,3.185,3.185,0,0,0-2.7-1h-6.57a1.006,1.006,0,0,0-1.006,1.006v8.795a.52.52,0,0,0,.535.507h1.746a.52.52,0,0,0,.535-.507v-2.873h1.155a1.871,1.871,0,0,0,.183.169l3.689,3.084a.54.54,0,0,0,.352.126h2.1a.552.552,0,0,0,.521-.352.51.51,0,0,0-.169-.549Zm-4.548-2.027v-2.351c0-.169,0-.2.1-.268s.155-.084.366-.084h3.478a1.659,1.659,0,0,1,1,.211c.127.112.281.395.281,1.085a2.217,2.217,0,0,1-.2,1.112,1.077,1.077,0,0,1-.9.3Z" transform="translate(-108.895 -76.142)" fill="#fff"/>
    <path id="Trazado_4393" data-name="Trazado 4393" d="M1759.132,1440.056l-1.911.011a.3.3,0,0,0-.3.3v6.714l-4.675-6.125a2.221,2.221,0,0,0-1.689-.873l-2.16-.022a.3.3,0,0,0-.3.3v9.506a.521.521,0,0,0,.535.507h1.676a.52.52,0,0,0,.535-.507v-6.492l4.7,6.168a2.415,2.415,0,0,0,2.1.943c1.281,0,2.042-.634,2.042-1.7v-8.209A.545.545,0,0,0,1759.132,1440.056Z" transform="translate(-210.887 -75.969)" fill="#fff"/>
    <path id="Trazado_4394" data-name="Trazado 4394" d="M1641.441,1422.177l-5.877-.347h-56.453l-5.878.347a.108.108,0,0,0,0,.215l5.878.347h56.453l5.877-.347A.108.108,0,0,0,1641.441,1422.177Z" transform="translate(-82.661 -62.61)" fill="#fff"/>
  </g>
</svg>
